<svg xmlns="http://www.w3.org/2000/svg" viewBox="0 0 500 500"><path d="M106.12 275.13s-9.08 2.4-1.44 22 13.3 29.5 13.3 29.5 1.25 4.5-2.46 4.8-11.61-1.78-13.68 2.52.77 9.15 7.2 13.66 20.14 14.92 21.38 15.86 2.31 3.08-.19 3.69-20.73.68-20.18 9.33 20.52 18.28 22.68 19.38 2.6 2.1 2.3 3.31-6.44.67-11.63.9-11.16 1.41-10.42 6.37 12 16.38 41.5 22.29l13.86 1.85 8.75-11c17.28-24.65 17.56-40.67 14.67-44.77s-8-.84-11.95 2.57-8 8-9 7.38-1.44-1.71-.63-4 8.63-23 3.06-29.67-18.82 5.89-21.05 7.16-2.92-1-2.68-2.54 3-18.53 4.54-26.23.41-13.11-4.22-14.86c-4.46-1.68-8.74 5.28-11.64 7.62s-5.09-1.78-5.09-1.78-2.73-11.07-10.72-30.53-16.41-14.78-16.41-14.78" fill="#ebebeb"/><path d="M168.73 433.93c-5.81-14.31-15.73-39.93-24.34-61.88s-16.43-41.8-22.17-56.14c-2.88-7.15-5.2-13-6.82-17l-1.85-4.62-.47-1.2a4 4 0 01-.15-.42s.07.13.19.4.29.68.51 1.19l1.93 4.59c1.66 4 4 9.77 6.94 16.93 5.81 14.31 13.68 34.15 22.3 56.1s18.47 47.58 24.22 61.92" fill="#e0e0e0"/><path d="M112.77 337.31a4.58 4.58 0 01.94.37c.6.26 1.45.66 2.49 1.16 2.09 1 4.94 2.49 8.06 4.18l8 4.34 2.42 1.29a4.65 4.65 0 01.87.52 6.13 6.13 0 01-.95-.36c-.59-.26-1.44-.67-2.48-1.18-2.08-1-4.91-2.55-8-4.23l-8-4.28-2.42-1.29a3.89 3.89 0 01-.93-.52zM136.55 348.37c-.11-.05 2.67-6.06 6.21-13.42s6.49-13.29 6.6-13.24-2.67 6.07-6.21 13.43-6.49 13.29-6.6 13.23zM148.26 382.67a5 5 0 01.65-.8l1.88-2.09c1.58-1.76 3.75-4.21 6-7s4.3-5.37 5.73-7.26c.68-.88 1.24-1.63 1.7-2.23a4.45 4.45 0 01.66-.79 4.24 4.24 0 01-.52.89c-.37.55-.9 1.35-1.59 2.32-1.37 1.93-3.33 4.56-5.64 7.35s-4.52 5.22-6.16 6.93c-.82.85-1.49 1.54-2 2a4.63 4.63 0 01-.71.68zM124.55 377.4a3.92 3.92 0 011 .11l2.55.46c2.15.41 5.12 1 8.39 1.69s6.22 1.33 8.36 1.81l2.52.6a4 4 0 01.92.28 3.89 3.89 0 01-1-.11l-2.55-.47c-2.16-.41-5.12-1-8.39-1.68s-6.23-1.33-8.36-1.82l-2.53-.59a3.79 3.79 0 01-.91-.28zM131 409a6.67 6.67 0 011.22.16l3.27.58c2.76.51 6.57 1.24 10.76 2.07s8 1.62 10.75 2.21l3.24.71a6.43 6.43 0 011.18.32 6 6 0 01-1.21-.15l-3.27-.58c-2.76-.51-6.57-1.24-10.77-2.08s-8-1.62-10.74-2.2l-3.25-.72A7.15 7.15 0 01131 409zM160.78 414.69a7.06 7.06 0 01.79-1l2.28-2.73c1.93-2.31 4.57-5.51 7.39-9.13s5.29-6.94 7.06-9.37l2.1-2.88a8.16 8.16 0 01.81-1 6.57 6.57 0 01-.67 1.12c-.46.71-1.13 1.72-2 3-1.71 2.47-4.14 5.84-7 9.46s-5.51 6.79-7.49 9.06c-1 1.12-1.81 2-2.39 2.64a7.68 7.68 0 01-.88.83z" fill="#e0e0e0"/><rect x="337.83" y="304.44" width="97.12" height="149.35" rx="7.54" transform="rotate(-31.14 386.384 379.121)" fill="#ebebeb"/><path d="M435.85 410.77a10.31 10.31 0 113.49-14.15 10.3 10.3 0 01-3.49 14.15z" fill="#fff"/><path d="M437 423.39a10.46 10.46 0 01-2.6-.32 10.72 10.72 0 112.6.32zm0-20.62a9.81 9.81 0 00-8.38 14.88A9.83 9.83 0 00442 421a9.81 9.81 0 00-2.73-17.92 9.47 9.47 0 00-2.34-.31zM343 333.62l-7.1 4.28-.44-.72 6.45-3.9-1-1.67.65-.39zM341 344.81l-.65.39-3-5 .51-.32 4.67 1.21a2.73 2.73 0 002.33-.11c.82-.5 1-1.38.33-2.46a2.85 2.85 0 00-2-1.46l.13-.79a3.73 3.73 0 012.53 1.9c.87 1.44.69 2.8-.49 3.51a3.42 3.42 0 01-2.93.18l-3.83-1zM346.73 351.55l-.86-1.42-1.87 1.12-.44-.73 1.86-1.12-2.42-4 .53-.32 7 .92.49.81-6.77-.86 1.86 3.08 1.64-1 .43.71-1.64 1 .86 1.42zM353.3 362.42l-.86-1.42-1.86 1.13-.44-.73 1.86-1.13-2.42-4 .53-.32 7 .92.49.81-6.77-.86 1.86 3.08 1.65-1 .42.71-1.64 1L354 362zM357.27 368.49c-1.2.73-2.66.45-3.7-1.28a4.3 4.3 0 01-.63-3.09h.79a3.61 3.61 0 00.5 2.68c.73 1.2 1.7 1.49 2.56 1s1.14-1.46 0-3.27l-.91-1.51 3.78-1.78 2.34 3.88-.65.39-2-3.24-2.4 1.12.55.91c1.38 2.11 1.03 3.43-.23 4.19zM361.54 375.48a2.58 2.58 0 01-3.64-1.1c-1.14-1.89-.45-3.7 1.79-5.06 2.41-1.45 4.46-.89 5.62 1a3.84 3.84 0 01.64 1.92l-.77.06a2.9 2.9 0 00-.5-1.58c-.92-1.53-2.5-1.92-4.42-.76a6.21 6.21 0 00-.56.38 2.63 2.63 0 012.52 1.44 2.5 2.5 0 01-.68 3.7zm-.46-.7a1.82 1.82 0 00.46-2.71 1.82 1.82 0 10-3 1.9 1.81 1.81 0 002.54.81zM367.32 385.24c-1.18.72-2.61.41-3.65-1.31a4.27 4.27 0 01-.63-3.1h.79a3.63 3.63 0 00.51 2.7c.71 1.18 1.65 1.49 2.53 1s1.05-1.45.25-2.77l-.3-.5.53-.33 3.65.48-2.19-3.63.65-.39 2.76 4.56-.52.31-3.74-.48c.84 1.53.5 2.78-.64 3.46zM371.7 392.31a2.58 2.58 0 01-3.64-1.11c-1.14-1.88-.45-3.7 1.79-5.05 2.41-1.46 4.47-.9 5.63 1a3.86 3.86 0 01.63 1.91l-.76.06a3 3 0 00-.5-1.58c-.93-1.53-2.5-1.92-4.43-.75-.16.09-.36.23-.56.37a2.68 2.68 0 012.53 1.44 2.51 2.51 0 01-.69 3.71zm-.45-.71a1.82 1.82 0 00.45-2.71 1.83 1.83 0 10-3 1.91 1.82 1.82 0 002.55.8zM380.62 395.83l-.51.31-8.38 1-.47-.79 8.21-1-2.21-3.65-1.32.8-.44-.72 2-1.19zM386.75 406l-.51.31-8.38 1-.47-.79 8.21-1-2.21-3.65-1.33.81-.43-.72 2-1.2zM385.85 416.05c-1.25.76-2.68.16-3.7-1.53s-.87-3.21.38-4a2.08 2.08 0 012.58.32 1.86 1.86 0 01.88-2.06c1.16-.7 2.47-.15 3.38 1.35s.79 2.94-.36 3.64a1.9 1.9 0 01-2.25-.19 2.1 2.1 0 01-.91 2.47zm-.44-.76c.87-.53 1-1.61.21-2.86s-1.76-1.67-2.63-1.14-1 1.6-.22 2.86 1.76 1.67 2.64 1.14zm.78-3.21c.67 1.1 1.57 1.46 2.34 1s.86-1.48.22-2.55-1.55-1.45-2.34-1-.88 1.47-.22 2.55zM391.65 422c-2.41 1.46-4.47.9-5.63-1a3.92 3.92 0 01-.63-1.92l.76-.06a3 3 0 00.5 1.58c.93 1.53 2.5 1.92 4.43.76.16-.1.36-.23.56-.38a2.67 2.67 0 01-2.53-1.44 2.5 2.5 0 01.69-3.67 2.57 2.57 0 013.64 1.1c1.14 1.82.45 3.63-1.79 5.03zm.8-1.85a1.93 1.93 0 00.39-2.8 1.81 1.81 0 10-3 1.91 1.91 1.91 0 002.61.84zM399.48 427l-7.09 4.29-.44-.73 6.44-3.9-1-1.67.65-.39zM397.45 438.23l-.65.4-3-5 .52-.31 4.67 1.2a2.74 2.74 0 002.33-.11c.82-.49 1-1.38.32-2.46a2.81 2.81 0 00-2-1.46l.13-.78a3.71 3.71 0 012.54 1.9c.87 1.44.69 2.79-.5 3.51a3.4 3.4 0 01-2.92.17l-3.83-1zM402.68 443.76c-1.19.72-2.62.41-3.65-1.31a4.27 4.27 0 01-.63-3.1h.79a3.63 3.63 0 00.51 2.7c.71 1.17 1.65 1.49 2.53 1s1-1.45.25-2.77l-.31-.51.54-.32 3.65.48-2.19-3.63.65-.39 2.75 4.56-.51.31-3.74-.48c.84 1.53.5 2.77-.64 3.46zM361.995 396.015l3.096-1.872 34.533 57.113-3.096 1.872zM369.9 426.886l3.082-1.862 17.614 29.152-3.082 1.862z" fill="#fff"/><rect x="348.68" y="321.66" width="27.86" height="20.82" rx="4.96" transform="rotate(58.86 362.61 332.077)" fill="#e0e0e0"/><path d="M351.43 322.54l1.14-.69 7.43 12.28a3 3 0 105.14-3.1l-7.42-12.28 1.14-.69 7.42 12.28a4.33 4.33 0 01-7.42 4.48zM366.438 335.942l1.152-.697 5.122 8.471-1.152.697z" fill="#ebebeb"/><path fill="#fff" d="M380.7 308.728l37.057 61.334-5.264 3.18-37.058-61.333z"/><path d="M209.3 33.61c-.76 10.8 0 30.92-3.93 41s-9.18 20.48-19 25c-12.12 5.56-26.36 3.2-39.29 6.46-20.26 5.1-34.92 23.69-41.17 43.63s-5.56 41.3-4.81 62.18l103.4 14.34s.54-42 9.56-53.49 51.87-21.8 66-53.21c12.74-28.27 16.58-73.1 16.58-73.1z" fill="#f5f5f5"/><path d="M234.56 62l-1.34-2.47a3.69 3.69 0 01-.56 0l-1.9-.23-.28 2.24-.74-.09.87-7.07 2.64.33c1.8.22 2.77 1.27 2.59 2.78a2.21 2.21 0 01-1.89 2l1.42 2.63zm.53-4.64c.14-1.13-.53-1.87-1.94-2l-1.88-.23-.43 3.54 1.87.23c1.42.1 2.29-.42 2.38-1.53zM242.1 62.29l-.08.64-5-.61.87-7.06 4.84.59-.08.65-4.08-.5-.31 2.52 3.65.45-.08.63-3.65-.45-.33 2.62zM243.54 59.54a3.58 3.58 0 014.15-3.14 3.45 3.45 0 012.45 1.35l-.53.42a2.79 2.79 0 00-2-1.1 2.95 2.95 0 10-.73 5.85 2.78 2.78 0 002.2-.59l.41.54a3.48 3.48 0 01-2.72.71 3.58 3.58 0 01-3.23-4.04zM256.06 64l-.08.65L251 64l.87-7.06 4.84.6-.08.64-4.1-.5-.31 2.51 3.65.45-.07.64-3.65-.45-.33 2.62zM258.61 57.81l.74.1-.87 7.09-.75-.1zM266.88 61.29c-.19 1.51-1.39 2.28-3.18 2.06l-1.9-.24-.27 2.23-.75-.09.87-7.06 2.64.33c1.8.22 2.78 1.26 2.59 2.77zm-.75-.09c.14-1.13-.52-1.86-1.94-2l-1.87-.23-.44 3.53 1.88.23c1.41.14 2.24-.42 2.37-1.53zM269.85 59.86l-2.48-.31.08-.64 5.71.7-.08.65-2.48-.26-.79 6.42-.75-.1zM258.68 79.25c0 .15-9.45-1-21.05-2.6s-21-3-21-3.12 9.44 1 21 2.6 21.06 2.98 21.05 3.12zM257.54 87.67c0 .15-9.44-1-21-2.6s-21-3-21-3.12 9.44 1 21 2.6 21.02 2.98 21 3.12zM253.69 96.26c0 .14-9.44-1-21-2.6s-21-3-21-3.13 9.43 1 21 2.61 21.02 2.98 21 3.12zM246.68 104.92c0 .15-9.44-1-21.05-2.6s-21-3-21-3.12 9.44 1 21.05 2.6 21.02 2.98 21 3.12zM235.51 113.57c0 .14-9.44-1-21-2.61s-21-3-21-3.12 9.44 1 21 2.61 21.02 2.97 21 3.12zM277.51 82.06a52.46 52.46 0 01-10.26-1.67 26.6 26.6 0 015.18.58 26.06 26.06 0 015.08 1.09zM277.15 89.57A26.6 26.6 0 01272 89a26.06 26.06 0 01-5.08-1.09 24.85 24.85 0 015.17.58 26.51 26.51 0 015.06 1.08zM274.6 100a26.78 26.78 0 01-5.18-.6 31.75 31.75 0 01-5.08-1.07c0-.18 2.34.09 5.17.55a26 26 0 015.09 1.12zM270.92 108.75a26.78 26.78 0 01-5.18-.6 32.08 32.08 0 01-5.08-1.07c0-.18 2.34.09 5.17.55a25.79 25.79 0 015.09 1.12zM263 117.1a26.71 26.71 0 01-5.18-.6 30.49 30.49 0 01-5.08-1.07c0-.18 2.34.09 5.16.56a26.47 26.47 0 015.1 1.11zM226 124.13c0 .14-14.16-1.74-31.58-4.21s-31.54-4.58-31.52-4.72 14.16 1.74 31.59 4.21S226 124 226 124.13zM218.66 133a6.07 6.07 0 01-.7-.06l-2-.26-7.3-1.07-24.06-3.7c-9.39-1.48-17.88-2.86-24-3.89l-7.27-1.25c-.86-.16-1.52-.28-2-.38a3.09 3.09 0 01-.68-.18 4.46 4.46 0 01.7.08l2 .28 7.3 1.09 24.06 3.73 24 3.86 7.27 1.23 2 .36a2.8 2.8 0 01.68.16zM205.46 141.06a11.74 11.74 0 01-2.6-.23c-1.69-.22-4.14-.56-7.17-1-6.05-.87-14.4-2.14-23.61-3.58s-17.56-2.79-23.59-3.79l-7.14-1.2-1.93-.36a3.05 3.05 0 01-.67-.16 2.89 2.89 0 01.68.06l1.95.25 7.17 1 23.61 3.63 23.59 3.74zM249.79 129a26.78 26.78 0 01-5.18-.6 32.08 32.08 0 01-5.08-1.07c0-.18 2.34.09 5.17.55a25.57 25.57 0 015.09 1.12zM239.6 134.66a26.78 26.78 0 01-5.18-.6 32.08 32.08 0 01-5.08-1.07c0-.18 2.34.09 5.17.55a25.57 25.57 0 015.09 1.12zM225.88 144.21a26.78 26.78 0 01-5.18-.6 30.79 30.79 0 01-5.08-1.07c0-.18 2.34.09 5.17.56a26 26 0 015.09 1.11zM199.66 159.29c0 .15-17.51-2.43-39-5.74s-39-6.12-39-6.26 17.5 2.43 39 5.75 39.02 6.11 39 6.25zM189.19 178.22c0 .14-5.76-.67-12.8-1.81s-12.74-2.18-12.72-2.32 5.76.67 12.8 1.81 12.74 2.17 12.72 2.32z" fill="#e0e0e0"/><g><path d="M465.41 463.75c0 .15-96.45.26-215.4.26s-215.42-.11-215.42-.26 96.43-.26 215.42-.26 215.4.12 215.4.26z" fill="#263238"/></g><g><rect x="321.5" y="111.84" width="114.62" height="108.71" rx="6.79" transform="rotate(-8.04 378.628 166.173)" fill="#ff7306"/><path d="M400.11 179.71a4.46 4.46 0 01-.76.16l-2.19.36-8.16 1.25-27.29 4h-.22l-.06-.22c-.41-1.42-.85-2.91-1.29-4.43-3.71-13-7-24.57-9.19-32.14l.18.11-7.28 1-1.94.24a4.35 4.35 0 01-.68 0 3.83 3.83 0 01.66-.14l1.93-.32 7.26-1.12h.14v.13l9.38 32.09 1.28 4.44-.28-.19 27.4-3.8 8.14-1.09 2.21-.27a4.84 4.84 0 01.76-.06z" fill="#ebebeb"/><path d="M359.46 177.43h.19l.56-.11 2.19-.35 8.21-1.26 28.32-4.16-.22.24c.16-4.89.33-10.18.5-15.65.09-2.81.18-5.58.27-8.22l.29.27-33.41 4.71-9.89 1.34-2.67.34-.7.08h-.24a.81.81 0 01.24-.06l.68-.12 2.66-.43 9.88-1.5 33.38-4.88h.3v.31c-.08 2.64-.17 5.4-.26 8.22-.18 5.47-.36 10.76-.52 15.65v.15h-.21l-28.35 4-8.22 1.11-2.2.28-.57.06zM372.81 194.27c-.05 0-.1-.34-.35-.88a3.86 3.86 0 00-1.69-1.79 3.67 3.67 0 00-5.38 3.74 3.66 3.66 0 002.84 3 3.71 3.71 0 003.37-1 3.81 3.81 0 001.12-2.2c.09-.59 0-.94.09-.94a2 2 0 01.12 1 3.88 3.88 0 01-1.07 2.44 4.06 4.06 0 01-3.73 1.18 4.1 4.1 0 01-1.1-7.66 4.07 4.07 0 013.91.08 3.88 3.88 0 011.71 2 2.08 2.08 0 01.16 1.03zM397.52 190.72s-.1-.34-.35-.88a3.83 3.83 0 00-1.7-1.79 3.65 3.65 0 10.84 5.81 3.81 3.81 0 001.12-2.2c.09-.59 0-.94.09-.94a2 2 0 01.11 1 3.82 3.82 0 01-1.06 2.44 4.06 4.06 0 01-3.73 1.18 4.1 4.1 0 01-1.1-7.66 4.07 4.07 0 013.91.08 3.88 3.88 0 011.71 2 2.08 2.08 0 01.16.96z" fill="#ebebeb"/><circle cx="397.08" cy="144.31" r="11.07" transform="rotate(-56.52 397.074 144.303)" fill="#fafafa"/><path d="M402.44 139.36a10.72 10.72 0 01-1.17 2c-.78 1.18-1.88 2.78-3.12 4.54l-1.33 1.87-.14.2-.2-.13a35.43 35.43 0 01-4.48-3.19 36.39 36.39 0 014.75 2.77l-.34.06 1.32-1.88c1.24-1.76 2.39-3.33 3.24-4.46a10.14 10.14 0 011.47-1.78z" fill="#ff7306"/><rect x="334.61" y="240.23" width="92.86" height="88.07" rx="6.79" transform="rotate(14.15 381.015 284.215)" fill="#455a64"/></g><g><path d="M320.67 465.1l-125.83-.58A27.41 27.41 0 01167.56 437l1.33-315.46a27.42 27.42 0 0127.54-27.29l125.83.58a27.4 27.4 0 0127.28 27.52l-1.33 315.45a27.42 27.42 0 01-27.54 27.3z" fill="#263238"/><path d="M321 103.68l-24.4-.12a6.07 6.07 0 00-5.95 6.17v4.42a6.06 6.06 0 01-5.95 6.17l-47.55-.22a6.07 6.07 0 01-5.9-6.22v-4.43a6.07 6.07 0 00-5.9-6.22h-8.58l-21.35-.09a19.2 19.2 0 00-19.29 19.11l-1.3 307.91A19.2 19.2 0 00194 449.4l125.58.58a19.19 19.19 0 0019.28-19.11L340.15 123A19.19 19.19 0 00321 103.68z" fill="#fafafa"/><path d="M192.44 136.41a.52.52 0 01-.36-.16l-1.91-2a.46.46 0 01-.14-.35.49.49 0 01.15-.35l1.92-1.83a.49.49 0 01.7 0 .5.5 0 010 .71l-1.56 1.48 1.57 1.64a.5.5 0 010 .71.52.52 0 01-.37.15z" fill="#263238"/><rect x="191.08" y="396.62" width="136.06" height="35.13" rx="16.12" fill="#ff7306"/><path d="M242.93 410.11h3.16a3.89 3.89 0 110 7.77h-3.16zm3.12 7.06a3.18 3.18 0 100-6.35h-2.3v6.35zM251.4 414a4.08 4.08 0 114.09 3.95 3.9 3.9 0 01-4.09-3.95zm7.34 0a3.27 3.27 0 10-3.25 3.22 3.14 3.14 0 003.25-3.22zM267.88 410.11v7.77h-.67l-5-6.3v6.3h-.83v-7.77h.68l5 6.3v-6.3zM275.9 417.17v.71h-5.49v-7.77h5.32v.71h-4.5v2.76h4v.7h-4v2.89z" fill="#fafafa"/><path d="M207.41 291c0 1.41-1 2.27-2.71 2.27h-1.79v2.1h-.71v-6.65h2.5c1.69-.01 2.71.84 2.71 2.28zm-.7 0c0-1.07-.7-1.68-2-1.68h-1.77v3.33h1.77c1.29-.01 2-.65 2-1.65zM213.4 290.36v5h-.65v-.91a2 2 0 01-1.8 1 1.94 1.94 0 01-2.11-2.15v-2.9h.68v2.83c0 1.07.55 1.61 1.5 1.61a1.63 1.63 0 001.7-1.82v-2.62zM217.81 290.32v.68h-.16a1.62 1.62 0 00-1.69 1.84v2.55h-.67v-5h.64v1a1.9 1.9 0 011.88-1.07zM218.47 292.86a2.47 2.47 0 012.58-2.54 2.18 2.18 0 012 1l-.51.34a1.7 1.7 0 00-1.45-.74 2 2 0 000 3.9 1.69 1.69 0 001.45-.73l.51.34a2.22 2.22 0 01-2 1 2.48 2.48 0 01-2.58-2.57zM228.86 292.46v2.9h-.68v-2.83a1.4 1.4 0 00-1.5-1.6 1.64 1.64 0 00-1.75 1.81v2.62h-.68v-7.05h.68v2.92a2.11 2.11 0 011.87-.91 1.92 1.92 0 012.06 2.14zM234.47 292.26v3.1h-.65v-.78a1.88 1.88 0 01-1.72.83c-1.13 0-1.83-.59-1.83-1.46s.5-1.41 1.93-1.41h1.59v-.31c0-.85-.48-1.32-1.42-1.32a2.56 2.56 0 00-1.66.59l-.3-.5a3.14 3.14 0 012-.68 1.78 1.78 0 012.06 1.94zm-.68 1.6V293h-1.57c-1 0-1.28.38-1.28.89s.46.95 1.26.95a1.62 1.62 0 001.59-.98zM235.61 294.79l.3-.53a3.06 3.06 0 001.78.56c.95 0 1.34-.33 1.34-.82 0-1.3-3.24-.28-3.24-2.25 0-.82.7-1.43 2-1.43a3.31 3.31 0 011.76.47l-.29.54a2.52 2.52 0 00-1.47-.43c-.91 0-1.31.35-1.31.83 0 1.35 3.24.33 3.24 2.25 0 .87-.76 1.43-2.06 1.43a3.36 3.36 0 01-2.05-.62zM245.3 293.07h-4.18a1.86 1.86 0 002 1.74 2 2 0 001.53-.66l.38.44a2.64 2.64 0 01-4.55-1.73 2.41 2.41 0 012.44-2.54 2.38 2.38 0 012.42 2.54c-.03.06-.04.14-.04.21zm-4.18-.51h3.55a1.78 1.78 0 00-3.55 0zM256.52 290.36l-1.89 5H254l-1.57-4.1-1.58 4.1h-.64l-1.88-5h.67l1.56 4.25 1.61-4.25h.58l1.6 4.25 1.59-4.25zM261.16 292.26v3.1h-.64v-.78a1.9 1.9 0 01-1.72.83c-1.13 0-1.83-.59-1.83-1.46s.5-1.41 1.93-1.41h1.59v-.31c0-.85-.48-1.32-1.42-1.32a2.56 2.56 0 00-1.66.59l-.3-.5a3.14 3.14 0 012-.68 1.78 1.78 0 012.05 1.94zm-.67 1.6V293h-1.57c-1 0-1.28.38-1.28.89s.46.95 1.26.95a1.62 1.62 0 001.59-.98zM262.31 294.79l.3-.53a3.06 3.06 0 001.78.56c.95 0 1.34-.33 1.34-.82 0-1.3-3.24-.28-3.24-2.25 0-.82.7-1.43 2-1.43a3.35 3.35 0 011.77.47l-.29.54a2.53 2.53 0 00-1.48-.43c-.9 0-1.3.35-1.3.83 0 1.35 3.24.33 3.24 2.25 0 .87-.76 1.43-2.06 1.43a3.33 3.33 0 01-2.06-.62zM269.45 294.79l.3-.53a3.06 3.06 0 001.78.56c1 0 1.34-.33 1.34-.82 0-1.3-3.24-.28-3.24-2.25 0-.82.7-1.43 2-1.43a3.31 3.31 0 011.76.47l-.29.54a2.52 2.52 0 00-1.47-.43c-.91 0-1.31.35-1.31.83 0 1.35 3.25.33 3.25 2.25 0 .87-.77 1.43-2.07 1.43a3.33 3.33 0 01-2.05-.62zM279.3 290.36v5h-.65v-.91a2 2 0 01-1.8 1 1.94 1.94 0 01-2.11-2.15v-2.9h.68v2.83c0 1.07.55 1.61 1.5 1.61a1.63 1.63 0 001.7-1.82v-2.62zM280.69 292.86a2.46 2.46 0 012.57-2.54 2.18 2.18 0 012 1l-.5.34a1.73 1.73 0 00-1.46-.74 2 2 0 000 3.9 1.72 1.72 0 001.46-.73l.5.34a2.22 2.22 0 01-2 1 2.47 2.47 0 01-2.57-2.57zM286 292.86a2.47 2.47 0 012.58-2.54 2.18 2.18 0 012 1l-.51.34a1.7 1.7 0 00-1.45-.74 2 2 0 000 3.9 1.69 1.69 0 001.45-.73l.51.34a2.22 2.22 0 01-2 1 2.48 2.48 0 01-2.58-2.57zM296.08 293.07h-4.18a1.85 1.85 0 002 1.74 2 2 0 001.53-.66l.39.44a2.65 2.65 0 01-4.56-1.73 2.41 2.41 0 012.44-2.54 2.39 2.39 0 012.43 2.54c-.04.06-.05.14-.05.21zm-4.18-.51h3.54a1.77 1.77 0 00-3.54 0zM296.77 294.79l.31-.53a3 3 0 001.78.56c.95 0 1.34-.33 1.34-.82 0-1.3-3.25-.28-3.25-2.25 0-.82.71-1.43 2-1.43a3.35 3.35 0 011.77.47l-.29.54a2.56 2.56 0 00-1.48-.43c-.9 0-1.3.35-1.3.83 0 1.35 3.24.33 3.24 2.25 0 .87-.76 1.43-2.06 1.43a3.37 3.37 0 01-2.06-.62zM301.42 294.79l.31-.53a3 3 0 001.78.56c.95 0 1.34-.33 1.34-.82 0-1.3-3.25-.28-3.25-2.25 0-.82.71-1.43 2-1.43a3.35 3.35 0 011.77.47l-.29.54a2.56 2.56 0 00-1.48-.43c-.9 0-1.3.35-1.3.83 0 1.35 3.24.33 3.24 2.25 0 .87-.76 1.43-2.06 1.43a3.37 3.37 0 01-2.06-.62zM307.54 289.77v.59h1.54v.57h-1.52v4.43h-.68v-4.43H306v-.57h.89v-.62a1.37 1.37 0 011.51-1.48 1.59 1.59 0 011 .31l-.23.51a1.09 1.09 0 00-.74-.25c-.59 0-.89.32-.89.94zM314.5 290.36v5h-.65v-.91a2 2 0 01-1.8 1 1.94 1.94 0 01-2.11-2.15v-2.9h.68v2.83c0 1.07.55 1.61 1.5 1.61a1.63 1.63 0 001.7-1.82v-2.62zM316.39 288.31h.68v7.05h-.68z" fill="#263238"/><path d="M211.49 263.81h-4.23v-2h10.82v2h-4.23v10.75h-2.36zM229.21 269v5.58h-2.27v-5.28c0-1.73-.86-2.57-2.31-2.57-1.62 0-2.72 1-2.72 2.93v4.92h-2.27v-13.53h2.27V266a4.35 4.35 0 013.24-1.24c2.33-.04 4.06 1.29 4.06 4.24zM240.24 268.86v5.7h-2.14v-1.19a3.45 3.45 0 01-3.06 1.31c-2.22 0-3.63-1.22-3.63-2.91s1.1-2.89 4.05-2.89H238v-.15c0-1.33-.8-2.11-2.42-2.11a4.8 4.8 0 00-3 1l-.89-1.65a6.81 6.81 0 014.11-1.21c2.82-.04 4.44 1.29 4.44 4.1zm-2.24 2.65v-1.12h-2.35c-1.55 0-2 .58-2 1.29s.7 1.35 1.86 1.35a2.47 2.47 0 002.49-1.52zM252.73 269v5.58h-2.28v-5.28c0-1.73-.85-2.57-2.31-2.57-1.62 0-2.71 1-2.71 2.93v4.92h-2.28v-9.73h2.17v1.26a4.24 4.24 0 013.35-1.37c2.33-.02 4.06 1.31 4.06 4.26zM259.59 270.39L257.9 272v2.57h-2.28v-13.52h2.28v8.15l4.71-4.37h2.73l-4.06 4.08 4.44 5.65H263zM281.32 264.83l-4.55 10.51c-.89 2.2-2.13 2.87-3.75 2.87a4 4 0 01-2.6-.89l.91-1.67a2.43 2.43 0 001.67.67c.8 0 1.28-.38 1.71-1.35l.17-.38-4.24-9.76H273l3.06 7.19 3.08-7.19zM281.66 269.69a5.18 5.18 0 115.17 5 4.9 4.9 0 01-5.17-5zm8.07 0a2.89 2.89 0 10-2.9 3 2.84 2.84 0 002.9-3zM303.62 264.83v9.73h-2.17v-1.24a4 4 0 01-3.13 1.36c-2.5 0-4.19-1.36-4.19-4.29v-5.56h2.28v5.25c0 1.76.83 2.6 2.27 2.6s2.66-1 2.66-2.93v-4.92zM306.18 273.26a1.41 1.41 0 011.47-1.4 1.41 1.41 0 110 2.82 1.42 1.42 0 01-1.47-1.42zm.13-11.45H309l-.45 8.52h-1.81z" fill="#ff7306"/><circle cx="260.02" cy="216.56" r="26.18" fill="#ff7306"/><path d="M272.91 205.51c.33.27-4.56 6.85-10.92 14.69l-3.86 4.68-.53.64-.56-.58c-5-5.13-8.37-8.93-8.13-9.17s4.05 3.15 9.17 8.12L257 224l3.78-4.73c6.36-7.89 11.79-14.03 12.13-13.76z" fill="#fff"/><path d="M297.21 206c-.78-2.75-4.35-2.48-4.35-2.48l.09 1.91c2.07-.36 3.35 2.06 3.35 2.06z" fill="#ff7306"/><path d="M221.37 211.78c-.77-2.75-4.35-2.49-4.35-2.49l.1 1.92c2.07-.36 3.35 2.06 3.35 2.06zM263.14 173.73c4.15 1.26 6.73-3.52 6.73-3.52l-2.52-1.44c-1.24 2.93-5.38 2.59-5.38 2.59z" fill="#e0e0e0"/><path d="M240.13 178.88c-1.93.21-2.16 2.63-2.16 2.63l1.29.15c0-1.42 1.77-2 1.77-2z" fill="#ff7306"/><path d="M319.67 196.6c.28-1.92-2-2.75-2-2.75l-.47 1.21c1.38.35 1.51 2.21 1.51 2.21z" fill="#e0e0e0"/><path d="M251.39 153.61c.28-1.92-2-2.75-2-2.75l-.47 1.22c1.38.35 1.51 2.2 1.51 2.2zM203.71 184.58c-.34 3 3.64 3.74 3.64 3.74l.72-2c-2.39-.22-2.73-3-2.73-3zM292.47 173.67c1.94.11 2.56-2.24 2.56-2.24l-1.25-.36c-.23 1.4-2.07 1.69-2.07 1.69z" fill="#ff7306"/><path d="M303.06 181.57a4.49 4.49 0 01-1.6.15 4.44 4.44 0 01-1.6-.15 8.08 8.08 0 013.2 0zM304.76 177.22a8.82 8.82 0 010 3.24 8.28 8.28 0 010-3.24zM306.56 181.46a4.49 4.49 0 011.6-.15 4.44 4.44 0 011.6.15 8.08 8.08 0 01-3.2 0zM304.87 185.82a8.33 8.33 0 010-3.25 8.88 8.88 0 010 3.25zM307.45 184c-.06.05-.37-.21-.69-.58s-.51-.73-.45-.78.38.2.69.58.52.67.45.78zM307.3 179c.06.07-.15.38-.48.71s-.64.55-.7.49.15-.38.48-.71.64-.49.7-.49zM303.64 180.27c-.06.07-.36-.09-.67-.35s-.51-.52-.46-.58.35.09.66.34.52.53.47.59zM303.49 182.45c.07.05-.12.36-.42.69s-.59.54-.65.48.12-.37.42-.69.59-.54.65-.48z" fill="#e0e0e0"/><path d="M215.94 172.65a8.08 8.08 0 01-3.2 0 4.49 4.49 0 011.6-.15 4.44 4.44 0 011.6.15zM217.64 168.3a8.33 8.33 0 010 3.25 8.33 8.33 0 010-3.25zM219.45 172.55a8.08 8.08 0 013.2 0 8.08 8.08 0 01-3.2 0zM217.75 176.9a8.28 8.28 0 010-3.24 8.28 8.28 0 010 3.24zM220.34 175c-.07.06-.38-.2-.69-.58s-.52-.72-.45-.78.37.21.69.58.51.78.45.78zM220.19 170.1c.06.06-.16.38-.48.71s-.64.54-.7.48.15-.37.48-.7.64-.59.7-.49zM216.52 171.36c-.05.06-.35-.09-.66-.35s-.52-.52-.46-.59.35.09.66.35.52.52.46.59zM216.38 173.53c.06.06-.13.37-.42.7s-.59.54-.66.48.13-.37.42-.69.59-.55.66-.49z" fill="#ff7306"/><path d="M326.62 131.05a49 49 0 01-7.07.26 48.75 48.75 0 01-7.06-.26 47.1 47.1 0 017.06-.26 47.29 47.29 0 017.07.26zM326.62 134a47.29 47.29 0 01-7.07.26 47.1 47.1 0 01-7.06-.26 48.75 48.75 0 017.06-.26 49 49 0 017.07.26zM326.62 136.93a47.29 47.29 0 01-7.07.26 47.1 47.1 0 01-7.06-.26 48.75 48.75 0 017.06-.26 49 49 0 017.07.26z" fill="#263238"/><path fill="#ebebeb" d="M276.906 378.943l-32.929-.259.327-41.568 32.929.258z"/><path fill="#fafafa" d="M264.34 338.61l-.59 40.24-5.2-.04 1.12-40.24 4.67.04z"/><path fill="#e0e0e0" d="M225.38 338.3l18.89.15 32.93.26-32.96 4.33-.28 35.66-18.89-.15.31-40.25z"/><path fill="#fafafa" d="M235.67 338.38l-.75 40.25-5.61-.05.92-40.24 5.44.04z"/><path d="M250.62 326.13c0 .26-.55.52-1.56.77a25.9 25.9 0 01-7.47.54c-.56 0-1.14-.1-1.75-.19a14.21 14.21 0 01-1.92-.41 5.83 5.83 0 01-1.19-.51 3.82 3.82 0 01-1.25-1.18 3.51 3.51 0 01-.54-1.81 6 6 0 01.16-1.4 24.33 24.33 0 011.26-4.17 11.23 11.23 0 011.21-2.12 9 9 0 01.81-1 6.19 6.19 0 011.1-.89 4.44 4.44 0 011.49-.6 3.94 3.94 0 011.71.05 5.56 5.56 0 012.25 1.24 18.48 18.48 0 014.33 5.31 13 13 0 011.45 4.33c.13 1.08 0 1.69-.24 1.74-.53.13-1.3-2-3.4-4.66a21.43 21.43 0 00-4.23-4 2.48 2.48 0 00-1-.49.36.36 0 00-.18 0 1.32 1.32 0 00-.28.15 3.27 3.27 0 00-.42.37c-.15.17-.32.38-.47.59a8.16 8.16 0 00-.79 1.44 28 28 0 00-1.13 3.53 2.5 2.5 0 00-.1.52h-.1c-.12 0-.15.06-.07 0l.12-.09a.36.36 0 00.09.09 2.5 2.5 0 00.47.24 13 13 0 001.47.44c.51.14 1 .25 1.51.35 1 .2 1.93.34 2.8.46 1.75.23 3.21.39 4.22.58s1.63.53 1.64.78z" fill="#e0e0e0"/><path d="M249.94 326.43c-.09-.52 2.37-1.29 6.21-2.42a52.82 52.82 0 006.48-2.32 6.57 6.57 0 001.41-.78c.15-.13.22-.24.2-.23s0 .15-.05.08a4 4 0 00-.23-.58l-.48-1a16 16 0 00-1-1.79 7.42 7.42 0 00-1.17-1.4 6.38 6.38 0 00-.66-.53 2.94 2.94 0 00-.6-.32 1.49 1.49 0 00-1-.09 3.18 3.18 0 00-1.16.67 25.28 25.28 0 00-4.5 4.89c-2.21 3.14-2.79 5.59-3.34 5.51-.24 0-.42-.7-.33-1.91a13.74 13.74 0 011.42-4.9 21.57 21.57 0 014.51-6.14 6.49 6.49 0 012.34-1.47 5 5 0 013.26 0 6.73 6.73 0 011.37.68 8.29 8.29 0 011.11.84 10.49 10.49 0 011.8 2.1 17.22 17.22 0 011.23 2.23l.48 1.06a5.92 5.92 0 01.49 1.51 3.4 3.4 0 01-.37 2.18 4.08 4.08 0 01-1.22 1.35 9.19 9.19 0 01-2.25 1.12 33.94 33.94 0 01-7.21 1.73c-4.12.56-6.68.41-6.74-.07z" fill="#ebebeb"/><path fill="#e0e0e0" d="M267.807 338.617l-48.399-.38.108-13.76 48.399.38z"/><path fill="#ebebeb" d="M280.948 338.717l-43.748-.344.108-13.76 43.748.344z"/><path fill="#fafafa" d="M267.62 324.87l-.31 13.82-5.1-.1.36-13.76 5.05.04zM231.37 324.66l-.5 13.7-5.61-.05.3-13.77 5.81.12z"/><path fill="#ebebeb" d="M298.313 378.074l-18.66-.147.185-23.549 18.66.147z"/><path fill="#fafafa" d="M291.18 355.22l-.33 22.81-2.95-.02.63-22.81 2.65.02z"/><path fill="#e0e0e0" d="M269.1 355.05l10.71.08 18.66.15-18.68 2.46-.16 20.2-10.7-.08.17-22.81z"/><path fill="#fafafa" d="M274.93 355.1l-.42 22.8-3.18-.02.52-22.81 3.08.03z"/><path d="M283.4 348.15c0 .35-1.22.77-3.36 1a12.2 12.2 0 01-3.91-.32 2.64 2.64 0 01-1.51-1 2.28 2.28 0 01-.35-1.15 3.91 3.91 0 01.09-.86 14.09 14.09 0 01.73-2.41 7.13 7.13 0 01.71-1.25A4.43 4.43 0 01277 341a2.62 2.62 0 012-.34 3.53 3.53 0 011.37.76 10.33 10.33 0 012.46 3.1c1 2 .86 3.49.53 3.54s-.87-1.09-2.08-2.54a12.62 12.62 0 00-2.39-2.21 1.22 1.22 0 00-.45-.23l-.07.05a2.17 2.17 0 00-.43.48 4 4 0 00-.42.77 15 15 0 00-.63 2l-.06.23h-.31c-.07 0-.08 0 0 0a.71.71 0 00.18-.16l.06-.06a1 1 0 00.22.12 17.44 17.44 0 003.21.75c1.9.29 3.21.52 3.21.89z" fill="#e0e0e0"/><path d="M283 348.33c-.07-.4 1.32-.93 3.46-1.64a35.18 35.18 0 003.6-1.37 3.33 3.33 0 00.71-.41c.06-.05.06-.09 0 0a.6.6 0 00-.07.28l-.37-.78a9.58 9.58 0 00-.55-1 3.37 3.37 0 00-.6-.72 2 2 0 00-.59-.42.48.48 0 00-.31 0 1.23 1.23 0 00-.54.3 15.21 15.21 0 00-2.55 2.64c-1.29 1.69-1.71 3.05-2.12 3s-.66-1.66.38-4a12 12 0 012.56-3.61 4.07 4.07 0 011.44-.92 3.15 3.15 0 012.08 0 3.8 3.8 0 01.86.41 5.82 5.82 0 01.68.52 6.34 6.34 0 011.08 1.25 12.49 12.49 0 01.72 1.31l.27.61a3.74 3.74 0 01.31 1 2.28 2.28 0 01-.26 1.47 2.78 2.78 0 01-.79.88 5.44 5.44 0 01-1.36.67 18.23 18.23 0 01-4.17.92c-2.34.16-3.79-.02-3.87-.39z" fill="#e0e0e0"/><path fill="#e0e0e0" d="M293.146 355.234l-27.43-.216.062-7.8 27.43.216z"/><path fill="#ebebeb" d="M300.607 355.284l-24.79-.194.062-7.8 24.79.195z"/><path fill="#fafafa" d="M293.04 347.44l-.17 7.83-2.9-.06.21-7.79 2.86.02zM272.5 347.32l-.28 7.76-3.18-.02.17-7.81 3.29.07z"/></g><g><path d="M422.45 397.81a12.41 12.41 0 016.43 7.28 21.82 21.82 0 01.85 9.87c-.72 6.4-4.36 12.86-8.27 18-5.39-4.7-6.63-12.91-7-17.11-.58-6.64 2.4-19 8-18M427.72 443.5a10.58 10.58 0 013.42-10.06 14 14 0 0110.36-3.24c1.72.13 3.57.63 4.55 2a4.52 4.52 0 01.07 4.59 9.13 9.13 0 01-3.39 3.34c-4.67 2.93-9.73 4.91-15 3.33" fill="#ff7306"/><path d="M420.81 463.12a7.64 7.64 0 01.19-1.31c.17-.93.39-2.12.65-3.56a37.19 37.19 0 013.67-11.35 22.75 22.75 0 018.15-8.66 15.54 15.54 0 013.32-1.47c.41-.14.74-.19 1-.25s.34-.06.34 0a21.07 21.07 0 00-12.36 10.64 39.87 39.87 0 00-3.75 11.2c-.33 1.49-.6 2.7-.8 3.52a7.54 7.54 0 01-.41 1.24z" fill="#263238"/><path d="M421 407.42a2.45 2.45 0 01.07.58c0 .42.06 1 .1 1.65.07 1.43.16 3.5.24 6.07.16 5.13.29 12.22.26 20s-.22 14.92-.44 20.05c-.1 2.57-.2 4.64-.29 6.07-.05.68-.08 1.22-.11 1.65.07-.57-.1.37-.1 0v-1.66c0-1.49.08-3.55.14-6.07.13-5.13.27-12.21.31-20s-.05-14.91-.13-20c0-2.52-.07-4.59-.1-6.08v-1.65a4.36 4.36 0 01.05-.61z" fill="#263238"/><path d="M418.4 447.39a24.78 24.78 0 00-13.52-18.13c-1.8-.86-4.15-1.43-5.63-.09s-1.16 3.75-.43 5.62a21.16 21.16 0 0019.45 13.13" fill="#ff7306"/><path d="M405.75 435.33a6.19 6.19 0 011.15.5 11.39 11.39 0 011.29.69 17.64 17.64 0 011.64 1 20.71 20.71 0 011.89 1.42 23.39 23.39 0 012 1.82 27.44 27.44 0 013.81 4.89 27 27 0 012.5 5.67 22.74 22.74 0 01.64 2.63 19.88 19.88 0 01.32 2.33c.1.72.06 1.37.09 1.94a11 11 0 010 1.47 6.68 6.68 0 01-.14 1.24c-.11 0 .07-1.78-.24-4.61a22.24 22.24 0 00-.37-2.3c-.15-.82-.41-1.68-.67-2.58a27.47 27.47 0 00-2.5-5.55 28.19 28.19 0 00-3.71-4.83 25 25 0 00-1.94-1.83c-.62-.56-1.26-1-1.83-1.44-2.35-1.63-3.98-2.37-3.93-2.46z" fill="#263238"/></g></svg>